<svg width="67" height="46" viewBox="0 0 67 46" fill="none" xmlns="http://www.w3.org/2000/svg">
<g filter="url(#filter0_dii_14_2)">
<rect x="10" y="10.6475" width="46.6492" height="24.538" rx="12.269" fill="#2233EE" fill-opacity="0.929412" shape-rendering="crispEdges"/>
<rect x="10.4" y="11.0475" width="45.8492" height="23.738" rx="11.869" stroke="#9EBAFF" stroke-width="0.8" shape-rendering="crispEdges"/>
</g>
<path d="M27.774 22.528C27.81 22.516 27.87 22.51 27.954 22.51C28.134 22.51 28.272 22.57 28.368 22.69C28.464 22.81 28.512 22.972 28.512 23.176C28.512 23.548 28.44 23.842 28.296 24.058C28.152 24.262 27.936 24.412 27.648 24.508C27.096 24.688 26.508 24.778 25.884 24.778C25.356 24.778 24.858 24.706 24.39 24.562C24.042 25.126 23.658 25.708 23.238 26.308C22.758 26.992 22.344 27.46 21.996 27.712C21.648 27.964 21.252 28.09 20.808 28.09C20.316 28.09 19.926 27.898 19.638 27.514C19.362 27.13 19.188 26.524 19.116 25.696C18.972 24.016 18.9 22.546 18.9 21.286V20.656C18.912 20.26 19.02 19.984 19.224 19.828C19.428 19.672 19.734 19.594 20.142 19.594C20.454 19.594 20.682 19.666 20.826 19.81C20.982 19.942 21.06 20.17 21.06 20.494C21.06 21.874 21.144 23.668 21.312 25.876C22.032 24.808 22.572 23.956 22.932 23.32C22.752 22.972 22.662 22.558 22.662 22.078C22.662 21.67 22.752 21.274 22.932 20.89C23.112 20.506 23.358 20.194 23.67 19.954C23.982 19.714 24.336 19.594 24.732 19.594C25.08 19.594 25.362 19.72 25.578 19.972C25.794 20.212 25.902 20.566 25.902 21.034C25.902 21.574 25.758 22.192 25.47 22.888C25.926 22.864 26.532 22.774 27.288 22.618L27.774 22.528ZM29.3079 18.424C28.8039 18.424 28.4259 18.31 28.1739 18.082C27.9219 17.842 27.7959 17.512 27.7959 17.092C27.7959 16.672 27.9579 16.324 28.2819 16.048C28.6179 15.76 29.0319 15.616 29.5239 15.616C29.9679 15.616 30.3279 15.724 30.6039 15.94C30.8799 16.156 31.0179 16.462 31.0179 16.858C31.0179 17.338 30.8619 17.722 30.5499 18.01C30.2379 18.286 29.8239 18.424 29.3079 18.424ZM29.1639 28.09C28.3839 28.09 27.8139 27.814 27.4539 27.262C27.1059 26.71 26.9319 25.978 26.9319 25.066C26.9319 24.526 26.9979 23.836 27.1299 22.996C27.2739 22.144 27.4539 21.352 27.6699 20.62C27.7779 20.236 27.9219 19.972 28.1019 19.828C28.2819 19.684 28.5699 19.612 28.9659 19.612C29.5779 19.612 29.8839 19.816 29.8839 20.224C29.8839 20.524 29.7699 21.22 29.5419 22.312C29.2539 23.632 29.1099 24.526 29.1099 24.994C29.1099 25.354 29.1579 25.63 29.2539 25.822C29.3499 26.014 29.5119 26.11 29.7399 26.11C29.9559 26.11 30.2259 25.96 30.5499 25.66C30.8739 25.36 31.3059 24.886 31.8459 24.238C31.9899 24.07 32.1519 23.986 32.3319 23.986C32.4879 23.986 32.6079 24.058 32.6919 24.202C32.7879 24.346 32.8359 24.544 32.8359 24.796C32.8359 25.276 32.7219 25.648 32.4939 25.912C31.3059 27.364 30.1959 28.09 29.1639 28.09ZM39.4076 23.986C39.5636 23.986 39.6836 24.058 39.7676 24.202C39.8636 24.346 39.9116 24.544 39.9116 24.796C39.9116 25.276 39.7976 25.648 39.5696 25.912C39.1256 26.452 38.4956 26.95 37.6796 27.406C36.8756 27.862 36.0116 28.09 35.0876 28.09C33.8276 28.09 32.8496 27.748 32.1536 27.064C31.4576 26.38 31.1096 25.444 31.1096 24.256C31.1096 23.428 31.2836 22.66 31.6316 21.952C31.9796 21.232 32.4596 20.662 33.0716 20.242C33.6956 19.822 34.3976 19.612 35.1776 19.612C35.8736 19.612 36.4316 19.822 36.8516 20.242C37.2716 20.65 37.4816 21.208 37.4816 21.916C37.4816 22.744 37.1816 23.458 36.5816 24.058C35.9936 24.646 34.9916 25.114 33.5756 25.462C33.8756 26.014 34.4456 26.29 35.2856 26.29C35.8256 26.29 36.4376 26.104 37.1216 25.732C37.8176 25.348 38.4176 24.85 38.9216 24.238C39.0656 24.07 39.2276 23.986 39.4076 23.986ZM34.8716 21.376C34.4276 21.376 34.0496 21.634 33.7376 22.15C33.4376 22.666 33.2876 23.29 33.2876 24.022V24.058C33.9956 23.89 34.5536 23.638 34.9616 23.302C35.3696 22.966 35.5736 22.576 35.5736 22.132C35.5736 21.904 35.5076 21.724 35.3756 21.592C35.2556 21.448 35.0876 21.376 34.8716 21.376ZM49.3159 19.594C49.9759 19.594 50.3059 19.804 50.3059 20.224C50.3059 20.368 50.2579 20.566 50.1619 20.818C49.1899 23.086 48.2719 24.916 47.4079 26.308C46.9759 26.992 46.5859 27.46 46.2379 27.712C45.8899 27.964 45.4939 28.09 45.0499 28.09C44.5699 28.09 44.2099 27.904 43.9699 27.532C43.7419 27.16 43.5979 26.548 43.5379 25.696C43.5139 25.384 43.4899 24.916 43.4659 24.292C43.0939 25.324 42.7519 26.116 42.4399 26.668C42.1399 27.208 41.8399 27.58 41.5399 27.784C41.2519 27.988 40.9039 28.09 40.4959 28.09C40.0039 28.09 39.6139 27.898 39.3259 27.514C39.0499 27.13 38.8759 26.524 38.8039 25.696C38.6599 24.016 38.5879 22.546 38.5879 21.286V20.656C38.5999 20.248 38.7019 19.972 38.8939 19.828C39.0859 19.672 39.3979 19.594 39.8299 19.594C40.1419 19.594 40.3699 19.666 40.5139 19.81C40.6699 19.942 40.7479 20.17 40.7479 20.494C40.7479 21.874 40.8319 23.668 40.9999 25.876C41.3959 25.036 41.7619 24.232 42.0979 23.464C42.4339 22.696 42.8239 21.712 43.2679 20.512C43.3999 20.152 43.5559 19.912 43.7359 19.792C43.9279 19.66 44.1499 19.594 44.4019 19.594C44.7379 19.594 44.9899 19.666 45.1579 19.81C45.3259 19.942 45.4099 20.17 45.4099 20.494V23.284C45.4099 24.484 45.4159 25.348 45.4279 25.876C45.9799 24.916 46.4299 24.082 46.7779 23.374C47.1379 22.666 47.5399 21.712 47.9839 20.512C48.1159 20.152 48.2899 19.912 48.5059 19.792C48.7219 19.66 48.9919 19.594 49.3159 19.594Z" fill="white"/>
<defs>
<filter id="filter0_dii_14_2" x="0" y="0.647461" width="66.6492" height="54.538" filterUnits="userSpaceOnUse" color-interpolation-filters="sRGB">
<feFlood flood-opacity="0" result="BackgroundImageFix"/>
<feColorMatrix in="SourceAlpha" type="matrix" values="0 0 0 0 0 0 0 0 0 0 0 0 0 0 0 0 0 0 127 0" result="hardAlpha"/>
<feOffset/>
<feGaussianBlur stdDeviation="5"/>
<feComposite in2="hardAlpha" operator="out"/>
<feColorMatrix type="matrix" values="0 0 0 0 0.133333 0 0 0 0 0.298039 0 0 0 0 0.894118 0 0 0 0.5 0"/>
<feBlend mode="normal" in2="BackgroundImageFix" result="effect1_dropShadow_14_2"/>
<feBlend mode="normal" in="SourceGraphic" in2="effect1_dropShadow_14_2" result="shape"/>
<feColorMatrix in="SourceAlpha" type="matrix" values="0 0 0 0 0 0 0 0 0 0 0 0 0 0 0 0 0 0 127 0" result="hardAlpha"/>
<feOffset dy="20"/>
<feGaussianBlur stdDeviation="32"/>
<feComposite in2="hardAlpha" operator="arithmetic" k2="-1" k3="1"/>
<feColorMatrix type="matrix" values="0 0 0 0 0.109804 0 0 0 0 0.188235 0 0 0 0 0.694118 0 0 0 1 0"/>
<feBlend mode="normal" in2="shape" result="effect2_innerShadow_14_2"/>
<feColorMatrix in="SourceAlpha" type="matrix" values="0 0 0 0 0 0 0 0 0 0 0 0 0 0 0 0 0 0 127 0" result="hardAlpha"/>
<feOffset dy="-8"/>
<feGaussianBlur stdDeviation="4"/>
<feComposite in2="hardAlpha" operator="arithmetic" k2="-1" k3="1"/>
<feColorMatrix type="matrix" values="0 0 0 0 0.137255 0 0 0 0 0.305882 0 0 0 0 0.929412 0 0 0 1 0"/>
<feBlend mode="normal" in2="effect2_innerShadow_14_2" result="effect3_innerShadow_14_2"/>
</filter>
</defs>
</svg>
